{"title":"Madagascar.3.Europes.Most.Wanted.2012.TS.XViD.AC3-ADTRG","uid":7372732,"size":724516245,"categoryP":"video","categoryS":"movies","magnet":"?xt=urn:btih:6fea485bc53af37c3eeb4cd1dd3110612a833f1b&amp;dn=Madagascar.3.Europes.Most.Wanted.2012.TS.XViD.AC3-ADTRG&amp;tr=udp%3A%2F%2Ftracker.openbittorrent.com%3A80&amp;tr=udp%3A%2F%2Fopen.demonii.com%3A1337&amp;tr=udp%3A%2F%2Ftracker.coppersurfer.tk%3A6969&amp;tr=udp%3A%2F%2Fexodus.desync.com%3A6969","seeders":8,"leechers":0,"uploader":"tykoon123","files":52,"time":1340240314,"description":"poster: &lt;a href=&quot;\nhttp://imgh.us/Madagascar-3-Europes-Most-Wanted-Poster-004.jpg&quot; rel=&quot;nofollow&quot; target=&quot;_NEW&quot;&gt;\nhttp://imgh.us/Madagascar-3-Europes-Most-Wanted-Poster-004.jpg&lt;/a&gt;\n\nPlot:\nAlex, Marty, Gloria and Melman are still fighting to get home to their beloved Big Apple. Their journey takes them through Europe where they find the perfect cover: a traveling circus, which they reinvent - Madagascar style. \n &lt;a href=&quot;\nhttp://www.imdb.com/title/tt1277953/&quot; rel=&quot;nofollow&quot; target=&quot;_NEW&quot;&gt;\nhttp://www.imdb.com/title/tt1277953/&lt;/a&gt;\n\nSource - Spanish Thanks\n\nFormat : AVI\nFormat/Info : Audio Video Interleave\nFile size : 691 MiB\nDuration : 1h 22mn\nOverall bit rate : 1 177 Kbps\nWriting application : Lavf52.61.0\nWriting library : VirtualDub build 34703/release\n\nVideo\nID : 0\nFormat : MPEG-4 Visual\nFormat profile : Advanced Simple@L5\nFormat settings, BVOP : 2\nFormat settings, QPel : No\nFormat settings, GMC : No warppoints\nFormat settings, Matrix : Default (H.263)\nMuxing mode : Packed bitstream\nCodec ID : XVID\nCodec ID/Hint : XviD\nDuration : 1h 22mn\nBit rate : 1 101 Kbps\nWidth : 640 pixels\nHeight : 336 pixels\nDisplay aspect ratio : 1.905\nFrame rate : 29.970 fps\nColor space : YUV\nChroma subsampling : 4:2:0\nBit depth : 8 bits\nScan type : Progressive\nCompression mode : Lossy\nBits/(Pixel*Frame) : 0.171\nStream size : 647 MiB (94%)\nWriting library : XviD 64\n\nAudio\nID : 1\nFormat : MPEG Audio\nFormat version : Version 1\nFormat profile : Layer 3\nCodec ID : 55\nCodec ID/Hint : MP3\nDuration : 1h 22mn\nBit rate mode : Constant\nBit rate : 64.0 Kbps\nChannel(s) : 2 channels\nSampling rate : 44.1 KHz\nCompression mode : Lossy\nStream size : 37.6 MiB (5%)\nAlignment : Split accross interleaves\nInterleave, duration : 33 ms (1.00 video frame)\nInterleave, preload duration : 500 ms\n\n\n\nEncoder notes- ok, cam was a wierd source, like two sources choped together with loads of dupe frames etc. anyway used the magical boom boom filters and compressed it down.\naudio is awesome as usual (Thanks Bro), a little crackle in one song. Compressed audio down, but way better in propotion to the video, when this secret 720 cam appears,\nmaybe we will add some super duper HQ Line to it. but im sure you will agree , this is great for under 700mb. Enjoy \n\nSCREENS: &lt;a href=&quot;\nhttp://imgh.us/fM1kqDho.jpeg&quot; rel=&quot;nofollow&quot; target=&quot;_NEW&quot;&gt;\nhttp://imgh.us/fM1kqDho.jpeg&lt;/a&gt;","torrent":{"xt":"urn:btih:6fea485bc53af37c3eeb4cd1dd3110612a833f1b","amp;dn":"Madagascar.3.Europes.Most.Wanted.2012.TS.XViD.AC3-ADTRG","amp;tr":["udp%3A%2F%2Ftracker.openbittorrent.com%3A80","udp%3A%2F%2Fopen.demonii.com%3A1337","udp%3A%2F%2Ftracker.coppersurfer.tk%3A6969","udp%3A%2F%2Fexodus.desync.com%3A6969"],"infoHash":"6fea485bc53af37c3eeb4cd1dd3110612a833f1b","infoHashBuffer":{"type":"Buffer","data":[111,234,72,91,197,58,243,124,62,235,76,209,221,49,16,97,42,131,63,27]},"announce":[],"urlList":[]}}